<svg xmlns="http://www.w3.org/2000/svg" viewBox="0 0 1024 1024" role="img" aria-label="Kadenz">
<!-- Generated by docs/brand/generate_brand_assets.py — edit the generator, not this file. -->
<!-- Vector fallback icon source. The shipping launcher icon (icon_1024.png) is the noir ticket artwork; this tile is the flat brand-mark equivalent for tooling and previews. -->
<rect width="1024" height="1024" fill="#7C3AED"/>
<g transform="translate(153.6 287.33) scale(2.13970) translate(-32.5 -25)"><path fill="#FFFFFF" fill-rule="evenodd" d="M 62.5 25 H 337.5 A 30 30 0 0 1 367.5 55 V 104 A 26 26 0 0 0 367.5 156 V 205 A 30 30 0 0 1 337.5 235 H 62.5 A 30 30 0 0 1 32.5 205 V 156 A 26 26 0 0 0 32.5 104 V 55 A 30 30 0 0 1 62.5 25 Z M 113.5 130 a 11.5 11.5 0 1 0 -23 0 a 11.5 11.5 0 1 0 23 0 Z M 135.25 125.75 H 146.75 A 4.25 4.25 0 0 1 146.75 134.25 H 135.25 A 4.25 4.25 0 0 1 135.25 125.75 Z M 163.75 122.25 A 4.25 4.25 0 0 1 172.25 122.25 V 137.75 A 4.25 4.25 0 0 1 163.75 137.75 Z M 180.25 113.25 A 4.25 4.25 0 0 1 188.75 113.25 V 146.75 A 4.25 4.25 0 0 1 180.25 146.75 Z M 196.75 100.25 A 4.25 4.25 0 0 1 205.25 100.25 V 159.75 A 4.25 4.25 0 0 1 196.75 159.75 Z M 213.25 87.25 A 4.25 4.25 0 0 1 221.75 87.25 V 172.75 A 4.25 4.25 0 0 1 213.25 172.75 Z M 229.75 69.25 A 4.25 4.25 0 0 1 238.25 69.25 V 190.75 A 4.25 4.25 0 0 1 229.75 190.75 Z M 246.25 84.25 A 4.25 4.25 0 0 1 254.75 84.25 V 175.75 A 4.25 4.25 0 0 1 246.25 175.75 Z M 262.75 98.25 A 4.25 4.25 0 0 1 271.25 98.25 V 161.75 A 4.25 4.25 0 0 1 262.75 161.75 Z M 279.25 111.25 A 4.25 4.25 0 0 1 287.75 111.25 V 148.75 A 4.25 4.25 0 0 1 279.25 148.75 Z M 295.75 121.25 A 4.25 4.25 0 0 1 304.25 121.25 V 138.75 A 4.25 4.25 0 0 1 295.75 138.75 Z M 321.25 125.75 H 332.75 A 4.25 4.25 0 0 1 332.75 134.25 H 321.25 A 4.25 4.25 0 0 1 321.25 125.75 Z"/></g>
</svg>
